<svg xmlns="http://www.w3.org/2000/svg" viewBox="0 0 355.27 68.41"><g id="terrapay" data-name="Layer 2"><g id="terrapay-logo-group" data-name="Layer 1"><path xmlns="http://www.w3.org/2000/svg" class="cls-1" fill="#e35e57" d="M51.92,43.48a18.32,18.32,0,0,0,13.52-3.2l5.45,7.62C69,50.08,60.77,54,52.56,54,29,54.69,32.25,32.72,32.25,32.72c.32-4.87,6-23.7,28.64-22.43C83.34,11.54,74.8,36.17,74.8,36.17H44S43.66,42.33,51.92,43.48ZM45.84,27.27H65.57s.64-6.6-8.71-6.6A12.2,12.2,0,0,0,45.84,27.27Z"/><path xmlns="http://www.w3.org/2000/svg" class="cls-2" fill="#213871" d="M95.56,11.48H84.3L76.94,53.19h12.2l3.7-21.6a12.21,12.21,0,0,1,3-6.2,11,11,0,0,1,5.3-3.24c6.3-1.69,9.39,1.64,9.39,1.64l6.83-9.51a12.26,12.26,0,0,0-9.16-3.86c-6,0-9.69,2.81-12.43,5.55Z"/><path xmlns="http://www.w3.org/2000/svg" class="cls-2" fill="#213871" d="M133.35,11.48H122.09l-7.35,41.71h12.19l3.7-21.6a12.29,12.29,0,0,1,3-6.2,11,11,0,0,1,5.3-3.24c6.3-1.69,9.4,1.64,9.4,1.64l6.82-9.51A12.26,12.26,0,0,0,146,10.42c-6,0-9.68,2.81-12.42,5.55Z"/><path xmlns="http://www.w3.org/2000/svg" class="cls-2" fill="#213871" d="M190.12,11.48h11.56l-7.61,41.7H183.3l.1-5.14C178.26,53.18,173.32,54,167.89,54c-11.17-.1-17.59-9.19-16.21-21.44a25,25,0,0,1,22.83-21.94c11.92-.82,14.42,5.52,14.42,5.52Zm-4,20.33s1.62-10.54-9.17-10.59c-11.83-.06-13,11.71-13,11.71s-1.72,10.48,9.76,10.36C184.69,43.17,186.11,31.81,186.11,31.81Z"/><path xmlns="http://www.w3.org/2000/svg" class="cls-2" fill="#213871" d="M23.76,11.42c1.13-6.36,2-11.42,2-11.42L13.45,1.34,11.69,11.42H1.52L0,21.45H9.94l-3,17.33S5.71,45.85,8.13,49.15s6.94,7.07,20.94,3l-.94-10s-7.88,3.23-9-1.48a8.87,8.87,0,0,1,.18-4.17c.16-.74.52-3,1.59-9l-2.34-5.93h8.38a12,12,0,0,0,11.87-10h-15Z"/><polygon xmlns="http://www.w3.org/2000/svg" class="cls-1" fill="#e35e57" points="20.88 27.38 0 21.45 18.54 21.45 20.88 27.38"/><path xmlns="http://www.w3.org/2000/svg" class="cls-2" fill="#213871" d="M242.6,12.75a16.76,16.76,0,0,1,6.58,6.47,19.59,19.59,0,0,1,2.44,10,25.23,25.23,0,0,1-3.06,12.42,22.46,22.46,0,0,1-20,11.81q-9.53,0-13.47-6.2L211,67.79H198.9l11.3-56.66h11.46l-.85,4.1a18.24,18.24,0,0,1,12.77-4.72A18.7,18.7,0,0,1,242.6,12.75Zm-9.1,28.92a11.85,11.85,0,0,0,4.34-4.84,15.74,15.74,0,0,0,1.55-7.12A9,9,0,0,0,236.87,23a9.56,9.56,0,0,0-7-2.47,11.6,11.6,0,0,0-6.27,1.74,11.77,11.77,0,0,0-4.33,4.84,15.74,15.74,0,0,0-1.55,7.12,9.05,9.05,0,0,0,2.48,6.73,9.41,9.41,0,0,0,7,2.48A11.73,11.73,0,0,0,233.5,41.67Z"/><path xmlns="http://www.w3.org/2000/svg" class="cls-2" fill="#213871" d="M304.33,11.13l-8.28,41.65H284.59l.78-4.11a19.39,19.39,0,0,1-21.76,2.48,16.84,16.84,0,0,1-6.54-6.46,19.62,19.62,0,0,1-2.44-9.95,25.23,25.23,0,0,1,3.06-12.42A22.7,22.7,0,0,1,266,13.64a22.28,22.28,0,0,1,11.62-3.13q9.58,0,13.54,6.27l1.09-5.65ZM282.66,41.67A11.76,11.76,0,0,0,287,36.83a15.74,15.74,0,0,0,1.55-7.12A9,9,0,0,0,286,23a9.54,9.54,0,0,0-7-2.47,11.56,11.56,0,0,0-10.68,6.58,15.61,15.61,0,0,0-1.55,7.12,9,9,0,0,0,2.51,6.73,9.58,9.58,0,0,0,7,2.48A11.76,11.76,0,0,0,282.66,41.67Z"/><path xmlns="http://www.w3.org/2000/svg" class="cls-2" fill="#213871" d="M355.27,11.13,327.55,55.56q-4.49,7.27-8.7,10.07a18.43,18.43,0,0,1-10.34,2.78,20.74,20.74,0,0,1-6.38-1,13.26,13.26,0,0,1-4.92-2.63l5.57-8.67a9.53,9.53,0,0,0,6.66,2.55,7,7,0,0,0,4-1.16,13.74,13.74,0,0,0,3.48-4l.39-.7-9.6-41.72h12.07L326,39.46l17.34-28.33Z"/></g></g></svg>